<svg width="32" height="32" viewBox="0 0 32 32" fill="none" xmlns="http://www.w3.org/2000/svg">
<g clip-path="url(#clip0_731_395)">
<rect width="32" height="32" rx="16" fill="white"/>
<g clip-path="url(#clip1_731_395)">
<path d="M18.4345 5.38137C17.6717 5.13868 16.8397 5 15.9903 5C13.5461 5 11.3445 6.10943 9.87109 7.86024L13.6501 11.0325L18.4345 5.38137Z" fill="#1A73E8"/>
<path d="M9.87216 7.86035C8.71073 9.24713 8 11.05 8 12.9914C8 14.4996 8.29469 15.713 8.7974 16.8051L13.6511 11.0326L9.87216 7.86035Z" fill="#EA4335"/>
<path d="M16.0099 9.94088C17.7087 9.94088 19.0781 11.3103 19.0781 13.0091C19.0781 13.7545 18.8008 14.4479 18.3501 14.9853C18.3501 14.9853 20.7596 12.1077 23.1171 9.31683C22.1464 7.44467 20.4649 6.02322 18.4367 5.38184L13.6523 11.033C14.2244 10.3743 15.0565 9.94088 16.0099 9.94088Z" fill="#4285F4"/>
<path d="M16.0081 16.0593C14.3093 16.0593 12.9399 14.6899 12.9399 12.9911C12.9399 12.2457 13.1999 11.5523 13.6506 11.0322L8.79688 16.8047C9.62894 18.6422 11.0157 20.133 12.4372 21.9878L18.3483 14.9672C17.7763 15.6433 16.9442 16.0593 16.0081 16.0593Z" fill="#FBBC04"/>
<path d="M18.2447 23.9296C20.9142 19.7519 24.0171 17.8625 24.0171 13.0087C24.0171 11.6739 23.6878 10.4258 23.1157 9.31641L12.4375 21.9881C12.8882 22.5775 13.3562 23.2536 13.8069 23.947C15.4364 26.4605 14.9857 27.9513 16.0258 27.9513C17.0659 27.9513 16.6152 26.4432 18.2447 23.9296Z" fill="#34A853"/>
</g>
</g>
<defs>
<clipPath id="clip0_731_395">
<rect width="32" height="32" fill="white"/>
</clipPath>
<clipPath id="clip1_731_395">
<rect width="16" height="22.9339" fill="white" transform="translate(8 5)"/>
</clipPath>
</defs>
</svg>
