<svg width="40" height="40" viewBox="0 0 40 40" fill="none" xmlns="http://www.w3.org/2000/svg">
<g clip-path="url(#clip0_594_950)">
<path d="M20.0002 7.5C13.633 7.5 7.26581 10.125 2.6955 14.3984C2.43768 14.6328 2.42987 15.0312 2.67206 15.2891L4.758 17.4688C5.00018 17.7266 5.40643 17.7344 5.66425 17.4922C7.48456 15.8047 9.56268 14.4609 11.8596 13.5078C14.4377 12.4297 17.1799 11.8906 20.008 11.8906C22.8361 11.8906 25.5783 12.4375 28.1564 13.5078C30.4533 14.4687 32.5314 15.8047 34.3517 17.4922C34.6096 17.7344 35.0158 17.7266 35.258 17.4688L37.3439 15.2891C37.5861 15.0391 37.5783 14.6406 37.3205 14.3984C32.7346 10.125 26.3674 7.5 20.0002 7.5Z" fill="#A97818" fill-opacity="0.4"/>
<path d="M8.84379 21.6797L11.0782 23.8906C11.3204 24.125 11.7032 24.1406 11.9532 23.9141C14.1641 21.9531 17 20.875 19.9922 20.875C22.9844 20.875 25.8204 21.9453 28.0313 23.9141C28.2813 24.1406 28.6641 24.125 28.9063 23.8906L31.1407 21.6797C31.3985 21.4219 31.3907 21.0078 31.1172 20.7656C28.1875 18.1172 24.2735 16.5 19.9844 16.5C15.6954 16.5 11.7813 18.1172 8.85161 20.7656C8.59379 21.0078 8.58598 21.4219 8.84379 21.6797ZM20 25.3281C18.1719 25.3281 16.5157 26.0938 15.3594 27.3203C15.125 27.5703 15.1329 27.9531 15.375 28.1953L19.5469 32.3125C19.7969 32.5625 20.2032 32.5625 20.4532 32.3125L24.625 28.1953C24.8672 27.9531 24.875 27.5703 24.6407 27.3203C23.4844 26.1016 21.8282 25.3281 20 25.3281Z" fill="#A97818"/>
</g>
<defs>
<clipPath id="clip0_594_950">
<rect width="40" height="40" fill="white"/>
</clipPath>
</defs>
</svg>
