<svg width="48" height="48" viewBox="0 0 48 48" fill="none" xmlns="http://www.w3.org/2000/svg">
<path d="M32.3303 16.5234C30.7535 15.8014 29.0888 15.2893 27.3789 15C27.1449 15.4183 26.9332 15.8486 26.7446 16.2893C24.9232 16.0148 23.071 16.0148 21.2496 16.2893C21.061 15.8487 20.8492 15.4183 20.6153 15C18.9043 15.2917 17.2386 15.8051 15.6602 16.5271C12.5266 21.1633 11.6772 25.6843 12.1019 30.1411C13.937 31.4969 15.991 32.5281 18.1746 33.1897C18.6663 32.5284 19.1013 31.8268 19.4752 31.0925C18.7651 30.8273 18.0798 30.5001 17.4271 30.1146C17.5988 29.9901 17.7668 29.8617 17.9292 29.7371C19.8284 30.6303 21.9012 31.0933 24 31.0933C26.0987 31.0933 28.1715 30.6303 30.0707 29.7371C30.235 29.8711 30.403 29.9995 30.5729 30.1146C29.9189 30.5007 29.2323 30.8285 28.5209 31.0944C28.8943 31.8284 29.3294 32.5293 29.8216 33.1897C32.007 32.5307 34.0626 31.5001 35.898 30.143C36.3963 24.9745 35.0467 20.495 32.3303 16.5234ZM20.0132 27.4002C18.8296 27.4002 17.8518 26.3261 17.8518 25.0047C17.8518 23.6833 18.7956 22.5998 20.0094 22.5998C21.2232 22.5998 22.1934 23.6833 22.1727 25.0047C22.1519 26.3261 21.2194 27.4002 20.0132 27.4002ZM27.9867 27.4002C26.8013 27.4002 25.8272 26.3261 25.8272 25.0047C25.8272 23.6833 26.7711 22.5998 27.9867 22.5998C29.2024 22.5998 30.1651 23.6833 30.1444 25.0047C30.1236 26.3261 29.193 27.4002 27.9867 27.4002Z" fill="#5865F2"/>
</svg>
