<svg width="36" height="36" viewBox="0 0 36 36" fill="none" xmlns="http://www.w3.org/2000/svg">
<g clip-path="url(#clip0_783_981)">
<path d="M19.821 9.28602C19.2489 9.10401 18.6249 9 17.9878 9C16.1547 9 14.5035 9.83207 13.3984 11.1452L16.2327 13.5244L19.821 9.28602Z" fill="#1A73E8"/>
<path d="M13.4041 11.1465C12.533 12.1866 12 13.5387 12 14.9948C12 16.1259 12.221 17.036 12.598 17.855L16.2384 13.5257L13.4041 11.1465Z" fill="#EA4335"/>
<path d="M18.0064 12.7054C19.2805 12.7054 20.3076 13.7325 20.3076 15.0066C20.3076 15.5657 20.0996 16.0857 19.7616 16.4887C19.7616 16.4887 21.5687 14.3306 23.3369 12.2374C22.6088 10.8333 21.3477 9.76717 19.8266 9.28613L16.2383 13.5245C16.6673 13.0304 17.2914 12.7054 18.0064 12.7054Z" fill="#4285F4"/>
<path d="M18.0061 17.2957C16.732 17.2957 15.7049 16.2686 15.7049 14.9945C15.7049 14.4355 15.8999 13.9154 16.238 13.5254L12.5977 17.8548C13.2217 19.2329 14.2618 20.351 15.3279 21.7421L19.7613 16.4766C19.3322 16.9837 18.7082 17.2957 18.0061 17.2957Z" fill="#FBBC04"/>
<path d="M19.6835 23.1972C21.6857 20.064 24.0128 18.6468 24.0128 15.0065C24.0128 14.0055 23.7658 13.0694 23.3368 12.2373L15.3281 21.7411C15.6662 22.1831 16.0172 22.6902 16.3552 23.2102C17.5773 25.0954 17.2393 26.2135 18.0193 26.2135C18.7994 26.2135 18.4614 25.0824 19.6835 23.1972Z" fill="#34A853"/>
</g>
<defs>
<clipPath id="clip0_783_981">
<rect width="12" height="17.2004" fill="white" transform="translate(12 9)"/>
</clipPath>
</defs>
</svg>
